# xmcd
#
# Track frame offsets:
#	150
#	11354
#	22173
#	41142
#	54131
#	72529
#	84695
#	102634
#
# Disc length: 1544 seconds
#
# Revision: 1
# Processed by: cddbd v1.5.2PL0 Copyright (c) Steve Scherf et al.
# Submitted via: audiograbber 1.83.01
#
DISCID=69060608
DTITLE=The Jim Jones Revue - Here to save your soul
DYEAR=2009
DGENRE=PunkRockBlues
TTITLE0=Rock´n Roll Psychosis
TTITLE1=Big Hunk o´Love
TTITLE2=Cement Mixer
TTITLE3=Good Golly Miss Molly
TTITLE4=Princess and the Frog
TTITLE5=Freak of Nature
TTITLE6=Burning your House down
TTITLE7=Elemental
EXTD=
EXTT0=
EXTT1=
EXTT2=
EXTT3=
EXTT4=
EXTT5=
EXTT6=
EXTT7=
PLAYORDER=
